Coordinates
version=1
nRows=29
nColumns=22
inDegrees=yes

Units are S.I. units (second, meters, Newtons, ...)
If the header above contains a line with 'inDegrees', this indicates whether rotational values are in degrees (yes) or radians (no).

endheader
time	pelvis_tilt	pelvis_list	pelvis_rotation	pelvis_tx	pelvis_ty	pelvis_tz	hip_flexion_r	hip_adduction_r	hip_rotation_r	knee_angle_r	ankle_angle_r	subtalar_angle_r	hip_flexion_l	hip_adduction_l	hip_rotation_l	knee_angle_l	ankle_angle_l	subtalar_angle_l	lumbar_extension	lumbar_bending	lumbar_rotation
      3.91000000	      5.94715553	     -4.91319653	    -44.21930327	      0.93711985	      0.88903536	      0.08379707	     -7.38801973	      8.35120669	     -7.77174539	    -18.08736601	     23.12383106	    -17.13454621	     24.23806708	     -6.18976859	      7.20531740	    -46.18177440	      4.43035812	     -7.54724772	    -11.36676051	      0.94021610	      4.55421171
      3.92000000	      5.78363333	     -4.89805918	    -45.36541752	      0.94200465	      0.88799782	      0.08927191	     -7.72370361	      8.22423191	     -6.72594271	    -18.27131626	     23.49680700	    -17.08473312	     24.63515548	     -6.17655404	      7.49184899	    -43.71680874	      3.58179843	     -6.13908075	    -11.27601314	      0.95468741	      4.75715186
      3.93000000	      5.63813480	     -4.88628417	    -46.44639350	      0.94701032	      0.88691138	      0.09468734	     -8.06933956	      8.07476697	     -5.75886319	    -18.47155915	     23.87332715	    -17.01774086	     24.97382426	     -6.15717454	      7.80309667	    -41.27148629	      2.60950864	     -4.53140530	    -11.19800086	      0.97170087	      4.87930593
      3.94000000	      5.51876388	     -4.87376053	    -47.47610044	      0.95215311	      0.88579768	      0.10010364	     -8.44651728	      7.89314677	     -4.87486952	    -18.65615391	     24.26662673	    -16.92413299	     25.24240247	     -6.12904465	      8.10545349	    -38.85387180	      1.56514699	     -2.81206594	    -11.12888496	      0.97386708	      4.98068638
      3.95000000	      5.43317161	     -4.85940292	    -48.45787585	      0.95742359	      0.88467202	      0.10551770	     -8.85504743	      7.67123976	     -4.07235251	    -18.83255175	     24.66660959	    -16.80548525	     25.44051482	     -6.08550886	      8.38080795	    -36.48055552	      0.44423343	     -1.00481441	    -11.07695771	      0.95394017	      5.04786734
      3.96000000	      5.38196910	     -4.83745245	    -49.40033803	      0.96280839	      0.88353670	      0.11096247	     -9.29368613	      7.40343543	     -3.35398487	    -18.99202979	     25.07039884	    -16.66094525	     25.57566908	     -6.02276326	      8.61534995	    -34.16783761	     -0.75958168	      0.83154767	    -11.03582232	      0.90004276	      5.08428023
      3.97000000	      5.38386454	     -4.79555605	    -50.32236806	      0.96830861	      0.88241622	      0.11647289	     -9.77023805	      7.06262782	     -2.69639614	    -19.12556383	     25.49380863	    -16.48973415	     25.63223427	     -5.92455806	      8.76726406	    -31.91058649	     -1.98234835	      2.61109887	    -11.00328554	      0.78383535	      5.11560038
      3.98000000	      5.38632925	     -4.76827882	    -51.19996506	      0.97388827	      0.88128237	      0.12195668	    -10.24562585	      6.71838119	     -2.14075007	    -19.27444396	     25.87987281	    -16.28733814	     25.66088083	     -5.82991720	      8.92406925	    -29.75663755	     -3.31401296	      4.36527213	    -10.98804232	      0.68337844	      5.13317817
      3.99000000	      5.43478255	     -4.72403361	    -52.08104845	      0.97953140	      0.88017287	      0.12754421	    -10.74971275	      6.30772055	     -1.61563647	    -19.40341420	     26.28944126	    -16.05623524	     25.62164838	     -5.71620657	      8.97086409	    -27.67795306	     -4.59826111	      5.93815839	    -10.97853416	      0.52046368	      5.16963633
      4.00000000	      5.49048350	     -4.67364186	    -52.95967015	      0.98520700	      0.87905999	      0.13318628	    -11.23353104	      5.86971068	     -1.14117863	    -19.56062304	     26.67111535	    -15.79542831	     25.55750611	     -5.61295440	      8.94340513	    -25.70370755	     -5.85187510	      7.32832632	    -10.96466894	      0.33969540	      5.22799066
      4.01000000	      5.55104329	     -4.61603764	    -53.84266185	      0.99091617	      0.87795095	      0.13891126	    -11.70363141	      5.40793296	     -0.68784148	    -19.73123367	     27.03609107	    -15.50782207	     25.47509124	     -5.52709190	      8.81519048	    -23.84537413	     -7.01300128	      8.50869008	    -10.93894615	      0.14245463	      5.31115285
      4.02000000	      5.59476659	     -4.55546265	    -54.72288439	      0.99666210	      0.87683459	      0.14471204	    -12.14908109	      4.94709013	     -0.25154310	    -19.91543899	     27.37206851	    -15.19743051	     25.40658530	     -5.47516234	      8.58247184	    -22.13619524	     -8.08656570	      9.46256988	    -10.88975882	     -0.04768348	      5.41888686
      4.03000000	      5.61202446	     -4.49184150	    -55.60276163	      1.00243355	      0.87571205	      0.15059400	    -12.56012433	      4.49902853	      0.17924689	    -20.12085143	     27.67513966	    -14.87917692	     25.36517694	     -5.46363552	      8.23400156	    -20.59346651	     -9.07593241	     10.18242305	    -10.81213698	     -0.22178511	      5.55268991
      4.04000000	      5.59855536	     -4.41227680	    -56.47346973	      1.00827261	      0.87457209	      0.15655560	    -12.93065142	      4.06422078	      0.63314325	    -20.33988506	     27.93474645	    -14.58542266	     25.38058793	     -5.48143785	      7.75071415	    -19.25349357	     -9.98324203	     10.66039302	    -10.68748633	     -0.37722838	      5.67750540
      4.05000000	      5.52176753	     -4.35415505	    -57.33142658	      1.01414490	      0.87343338	      0.16253838	    -13.25121647	      3.69363923	      1.06298153	    -20.60766233	     28.14043866	    -14.34932139	     25.44607981	     -5.56358174	      7.21711452	    -18.12542782	    -10.86887192	     10.91813905	    -10.54660420	     -0.45786242	      5.86127120
      4.06000000	      5.47396562	     -4.29494074	    -58.19942928	      1.02010338	      0.87237856	      0.16871018	    -13.61856994	      3.29045275	      1.54809518	    -20.83160084	     28.31218705	    -14.00675612	     25.48031241	     -5.63527892	      6.53669832	    -17.18888750	    -11.59658663	     11.26558010	    -10.39745855	     -0.57618363	      6.05368159
      4.07000000	      5.34905148	     -4.23497231	    -59.03983003	      1.02613669	      0.87129142	      0.17489072	    -13.90640577	      2.95607081	      2.01698913	    -21.11464359	     28.40541005	    -13.80940925	     25.59973731	     -5.75339510	      5.85745917	    -16.49870919	    -12.36672938	     11.34944967	    -10.20378295	     -0.61407437	      6.26369742
      4.08000000	      5.24073996	     -4.16663594	    -59.89508275	      1.03227524	      0.87025500	      0.18124549	    -14.20931308	      2.59252132	      2.54501164	    -21.38515877	     28.45940230	    -13.58236990	     25.70790280	     -5.85773253	      5.07548601	    -16.03284825	    -12.98194728	     11.44307421	     -9.99297456	     -0.67370832	      6.47867873
      4.09000000	      5.10426539	     -4.11523990	    -60.74325531	      1.03850306	      0.86925031	      0.18771423	    -14.49709238	      2.25551810	      3.05412763	    -21.68799522	     28.43535242	    -13.40798797	     25.81723206	     -5.97958259	      4.34436898	    -15.79290818	    -13.57001172	     11.49076154	     -9.77111253	     -0.69859325	      6.72218221
      4.10000000	      4.96789262	     -4.06664467	    -61.59133342	      1.04487214	      0.86827275	      0.19434162	    -14.78563619	      1.90868197	      3.58599736	    -22.00817536	     28.35418548	    -13.24099740	     25.90668518	     -6.08716144	      3.66553769	    -15.76882893	    -14.02282151	     11.55669103	     -9.53434825	     -0.71646439	      6.95441446
      4.11000000	      4.82953128	     -4.02574465	    -62.44135689	      1.05137077	      0.86730970	      0.20112527	    -15.07196274	      1.55441220	      4.12415447	    -22.35481371	     28.21240085	    -13.06715480	     25.97508548	     -6.17883420	      3.10947728	    -15.96443373	    -14.35053093	     11.66248464	     -9.28772287	     -0.72809072	      7.20438002
      4.12000000	      4.67834032	     -3.99230419	    -63.28816683	      1.05802207	      0.86635177	      0.20807930	    -15.35180259	      1.20065399	      4.64581174	    -22.72639732	     27.99773598	    -12.88431515	     26.01244537	     -6.26088315	      2.69177805	    -16.34161570	    -14.54910732	     11.81142912	     -9.02219308	     -0.71408895	      7.44803252
      4.13000000	      4.51318344	     -3.95962096	    -64.13420296	      1.06481204	      0.86536461	      0.21519233	    -15.60716432	      0.84890769	      5.17029238	    -23.14221808	     27.73399740	    -12.64685050	     26.02966024	     -6.32915019	      2.42870280	    -16.90181552	    -14.55627294	     12.02009276	     -8.73490539	     -0.68237812	      7.67345276
      4.14000000	      4.32689922	     -3.92302231	    -64.96616248	      1.07178560	      0.86433206	      0.22243303	    -15.82620563	      0.50244529	      5.67527104	    -23.60921065	     27.38778405	    -12.32396549	     26.03854717	     -6.38091811	      2.30972367	    -17.62793812	    -14.35431379	     12.27097264	     -8.41983235	     -0.61525408	      7.87249231
      4.15000000	      4.14030936	     -3.89622996	    -65.77714546	      1.07896388	      0.86329153	      0.22986111	    -16.07169722	      0.14875255	      6.14969339	    -24.05800991	     26.96542975	    -12.04934135	     26.01311734	     -6.40705012	      2.27663531	    -18.50611717	    -13.83556593	     12.46622872	     -8.09308275	     -0.53664456	      8.09400660
      4.16000000	      3.91367076	     -3.85944443	    -66.57314391	      1.08627711	      0.86217441	      0.23734634	    -16.23295912	     -0.16452929	      6.67883820	    -24.61263287	     26.47423865	    -11.62984108	     26.00610636	     -6.44434110	      2.28027060	    -19.51337037	    -13.03542145	     12.66263472	     -7.73980916	     -0.40283307	      8.24574475
      4.17000000	      3.69210761	     -3.82129705	    -67.32620629	      1.09379629	      0.86105377	      0.24496574	    -16.39628551	     -0.48307415	      7.17265030	    -25.17211268	     25.88026362	    -11.23436649	     25.97800002	     -6.45308571	      2.27553249	    -20.61636442	    -11.84654643	     12.80361066	     -7.37328154	     -0.26673072	      8.39099551
      4.18000000	      3.44669364	     -3.74292378	    -68.03878610	      1.10149122	      0.85989361	      0.25260373	    -16.46568004	     -0.78621101	      7.66682705	    -25.80182344	     25.12570149	    -10.71019152	     25.99492693	     -6.44905986	      2.22964819	    -21.79113866	    -10.38166435	     12.82100355	     -6.95500109	     -0.10354445	      8.54235560
      4.19000000	      3.26099110	     -3.69199712	    -68.67708395	      1.10932903	      0.85886144	      0.26023454	    -16.56030168	     -1.10924431	      8.14998525	    -26.47482129	     24.34724693	    -10.36282665	     25.93880363	     -6.37611034	      2.12437992	    -22.97758343	     -8.60628635	     12.76911030	     -6.60515887	      0.01937827	      8.58627532
